<?xml version="1.0" encoding="iso-8859-1"?>
<!-- Generator: Adobe Illustrator 26.3.1, SVG Export Plug-In . SVG Version: 6.00 Build 0)  -->
<svg version="1.1" id="Layer_1" xmlns="http://www.w3.org/2000/svg" xmlns:xlink="http://www.w3.org/1999/xlink" x="0px" y="0px"
	 viewBox="0 0 200 200" style="enable-background:new 0 0 200 200;" xml:space="preserve">
<g>
	<path style="fill:#412E27;" d="M151.542,56.19c5.276,12.382,2.432,24.684,2.086,37.284c1.564,0.31,3.119,0.612,4.671,0.928
		c4.199,0.857,5.811,2.737,5.547,7.074c-0.496,8.156-2.921,15.673-8.281,22.38c1.051,0,1.761-0.024,2.469,0.004
		c4.661,0.18,6.943,3.745,5.169,8.063c-1.953,4.754-2.839,10.779-2.343,15.942c1.057,10.999-3.443,18.624-13.44,23.211
		c-1.274,0.585-2.546,1.966-3.067,3.277c-5.119,12.89-13.267,17.7-27.123,16.015c-1.121-0.136-2.815,0.621-3.527,1.527
		c-9.314,11.846-26.132,13.388-36.252,2.499c-3.206-3.449-5.896-4.055-10.114-3.739c-9.757,0.731-17.875-4.999-21.26-14.641
		c-0.977-2.782-2.305-4.517-5.148-5.764c-10.145-4.449-15.039-15.505-11.663-26.348c1.05-3.372,1.407-6.214-1.097-8.942
		c-0.081-0.088-0.106-0.226-0.165-0.336c-3.366-6.389-1.968-9.443,5.253-10.97c-5.266-6.072-6.942-13.27-7.161-20.988
		c-0.11-3.876,1.582-6.087,5.342-7.013c6.346-1.563,8.358-4.004,8.573-10.717c0.141-4.389-0.202-8.791-0.206-13.188
		c-0.022-22.779,6.737-42.865,24.586-57.88C77.61,2.749,93.468-0.644,110.344,1.39c24.973,3.009,44.914,15.691,61.924,33.547
		c1.656,1.738,3.007,2.681,5.698,2.462c6.705-0.547,13.25,4.809,14.566,11.265c1.469,7.209-2.27,14.288-8.888,16.824
		c-6.753,2.588-14.871,0.141-17.757-6.364c-1.805-4.07-4.351-4.529-7.826-4.172C156.128,55.151,154.227,55.667,151.542,56.19z
		 M86.885,141.002c1.615,0.828,3.23,1.656,4.845,2.484c-2.347,6.357-6.667,10.896-12.922,13.4
		c-7.705,3.084-15.508,2.415-23.232-0.051c-7.76-2.478-14.461-6.787-20.402-12.453c-3.681,9.484,0.324,18.191,10.317,21.694
		c3.236,1.134,4.393,2.812,5.169,5.864c2.419,9.508,8.095,13.718,17.412,13.106c3.097-0.203,6.161-0.916,9.489-1.434
		c2.465,8.169,8.379,12.45,16.674,12.475c8.598,0.027,14.538-4.739,17.705-12.751c1.04,0.202,1.781,0.294,2.492,0.493
		c13.578,3.791,21.179-0.266,25.247-13.692c0.674-2.224,1.939-3.112,3.984-3.827c10.171-3.554,14.222-11.778,10.673-21.714
		c-6.008,5.579-12.783,9.745-20.532,12.277c-16.02,5.234-29.638-0.05-35.656-13.873c1.718-0.72,3.436-1.44,5.154-2.161
		c3.2,8.461,9.756,12.167,18.366,12.313c9.399,0.16,17.526-3.623,24.855-9.243c4.788-3.671,8.705-8.076,11.38-13.867
		c-3.18,0.575-5.957,1.206-8.768,1.56c-6.024,0.76-11.262-1.867-16.534-4.156c-8.322-3.612-16.045-3.184-23.012,3.061
		c-0.314-2.111-0.628-4.222-0.942-6.333c3.072-1.366,6.041-3.075,9.237-4.025c6.405-1.903,12.367,0.235,18.236,2.69
		c2.922,1.222,5.942,2.211,9.071,3.361c0.23-1.101,0.397-1.466,0.365-1.813c-0.859-9.336-5.011-17.535-9.052-25.748
		c-0.459-0.934-1.813-1.427-2.869-2.212c-0.888,1.35-1.53,2.325-1.915,2.911c-5.286-0.677-10.118-1.54-14.986-1.852
		c-4.849-0.31-9.733-0.068-14.848-0.068c0.291-1.63,0.519-2.91,0.832-4.665c-5.072,0-9.851,0-14.673,0
		c0.418,1.399,0.832,2.782,1.137,3.802c-10.18,0.789-20.104,1.558-30.453,2.36c-0.152-0.259-0.692-1.181-1.22-2.082
		c-5.315,2.601-12.99,22.082-11.573,29.453c3.302-1.331,6.577-2.555,9.773-3.957c8.956-3.929,17.546-3.623,25.742,2.007
		c-0.217,2.208-0.435,4.417-0.652,6.625c-7.027-6.424-14.932-7.22-23.336-3.291c-8.059,3.768-16.15,6.217-25.258,1.996
		c0.284,1.062,0.331,1.533,0.532,1.926c0.456,0.891,0.926,1.788,1.5,2.605c6.78,9.652,15.855,15.937,27.426,18.434
		C73.574,155.202,81.296,151.599,86.885,141.002z M47.308,59.841c2.047,0.274,3.725,0.651,5.413,0.7
		c10.923,0.318,21.847,0.612,32.773,0.824c18.476,0.358,36.955,0.57,55.428,1.039c3.498,0.089,4.585-0.876,4.395-4.425
		c-0.272-5.069,2.651-8.725,6.939-9.364c2.601-0.388,5.239-0.605,7.868-0.711c3.214-0.13,7.034-3.167,7.418-6.35
		c0.098-0.807-0.428-1.962-1.053-2.539c-4.696-4.335-9.258-8.863-14.3-12.766c-10.021-7.759-21.314-13.266-33.606-16.264
		c-11.757-2.868-23.722-3.09-35.229,1.223C61.168,19.523,51.502,37.323,47.308,59.841z M76.145,67.418
		c-8.737,0-16.65-0.056-24.562,0.022c-4.411,0.043-4.767,0.581-4.337,4.82c0.278,2.747,0.544,5.505,0.6,8.263
		c0.068,3.353,1.493,4.358,4.907,4.294c14.303-0.269,28.62-0.536,42.916-0.178c14.681,0.368,29.347,1.408,44.012,2.286
		c3.119,0.187,4.754-0.555,4.717-4.015c-0.029-2.747,0.292-5.522,0.716-8.244c0.457-2.934-0.584-4.117-3.556-4.247
		C119.479,69.457,97.403,68.404,76.145,67.418z M40.507,122.864c2.759-8.424,5.392-16.465,8.127-24.813
		c-5.562,1.06-11.173,2.13-16.955,3.233C31.672,110.035,33.591,117.585,40.507,122.864z M150.333,121.289
		c5.076-5.709,8.341-14.446,7.697-21.163c-5.486-0.842-11.03-1.692-16.351-2.509C144.634,105.699,147.479,113.481,150.333,121.289z
		 M178.463,44.844c-3.526-0.066-7.028,3.346-7.089,6.906c-0.068,4,3.121,7.259,7.084,7.238c3.652-0.019,6.891-3.336,6.901-7.067
		C185.368,48.155,182.212,44.915,178.463,44.844z"/>
	<path style="fill:#F90802;" d="M47.308,59.841c4.194-22.518,13.86-40.318,36.047-48.633c11.507-4.313,23.471-4.09,35.229-1.223
		c12.292,2.998,23.585,8.505,33.606,16.264c5.041,3.903,9.604,8.431,14.3,12.766c0.625,0.577,1.151,1.732,1.053,2.539
		c-0.385,3.183-4.204,6.22-7.418,6.35c-2.629,0.106-5.267,0.322-7.868,0.711c-4.288,0.64-7.211,4.296-6.939,9.364
		c0.19,3.55-0.896,4.514-4.395,4.425c-18.473-0.469-36.952-0.681-55.428-1.039c-10.926-0.212-21.85-0.506-32.773-0.824
		C51.033,60.492,49.355,60.115,47.308,59.841z M98.795,41.034c4.668-1.613,5.484,1.58,7.404,2.881
		c1.376,0.932,3.77,2.397,4.486,1.891c2.332-1.647-0.187-3.131-0.934-4.665c-0.081-0.166,0.06-0.441-0.04,0.15
		c1.708-1.138,2.935-1.956,4.162-2.774c-1.307-1.164-2.614-2.328-4.143-3.69c-0.094,0.134,0.343-0.218,0.403-0.626
		c0.192-1.294,0.243-2.609,0.349-3.915c-1.274,0.431-2.622,0.723-3.796,1.344c-0.728,0.385-1.106,1.38-1.793,1.903
		c-1.405,1.07-2.911,2.007-4.919,3.368c-0.088-3.818,0.027-3.704,3.503-7.192c1.13-1.134,2.506-3.766,2.012-4.457
		c-1.642-2.297-3.122-0.028-4.558,0.99c-0.284,0.201-0.657,0.275-0.375,0.162c-1.033-1.564-1.952-2.954-2.87-4.343
		c-1.095,1.248-2.189,2.497-3.432,3.914c0.289,0.142-0.029-0.108-0.381-0.17c-1.283-0.227-2.576-0.392-3.866-0.58
		c0.378,1.3,0.51,2.756,1.203,3.858c0.71,1.128,2.194,1.765,2.923,2.887c0.655,1.007,0.745,2.382,1.085,3.594
		c-1.187-0.252-2.604-0.184-3.509-0.831c-1.4-1.002-2.312-2.682-3.703-3.703c-0.792-0.581-2.125-0.424-3.215-0.6
		c-0.053,1.012-0.291,2.062-0.097,3.025c0.149,0.74,0.842,1.37,1.004,1.614c-1.6,1.17-2.941,2.151-4.283,3.133
		c1.298,0.991,2.596,1.983,4.118,3.145c0.074-0.215-0.083,0.115-0.152,0.462c-0.277,1.396-0.527,2.798-0.786,4.197
		c1.384-0.465,2.836-0.797,4.126-1.447c0.73-0.368,1.111-1.374,1.8-1.891c1.3-0.976,2.708-1.807,4.486-2.969
		c0.354,3.795,0.456,3.912-3.462,7.326c-2.49,2.169-2.499,3.911-0.103,5.885c1.251-0.992,2.367-1.876,2.97-2.354
		c1.206,1.512,2.171,2.72,3.135,3.929c1.071-1.363,2.141-2.727,3.254-4.144c0.086,0.058,0.366,0.369,0.703,0.456
		c1.296,0.333,2.611,0.593,3.918,0.881c-0.368-1.371-0.589-2.808-1.161-4.087c-0.33-0.738-1.302-1.162-1.855-1.834
		C101.264,44.356,100.207,42.889,98.795,41.034z"/>
	<path style="fill:#FBFAFA;" d="M98.149,143.001c6.017,13.821,19.636,19.105,35.655,13.871c7.748-2.532,14.524-6.698,20.532-12.277
		c3.549,9.936-0.501,18.16-10.673,21.714c-2.045,0.715-3.31,1.603-3.984,3.827c-4.068,13.426-11.669,17.482-25.247,13.692
		c-0.711-0.199-1.452-0.29-2.492-0.493c-3.167,8.012-9.107,12.778-17.705,12.751c-8.295-0.026-14.209-4.307-16.674-12.475
		c-3.328,0.518-6.392,1.231-9.489,1.434c-9.317,0.612-14.993-3.598-17.412-13.106c-0.776-3.052-1.933-4.73-5.169-5.864
		c-9.993-3.502-13.999-12.21-10.317-21.694c5.941,5.666,12.642,9.975,20.402,12.453c7.723,2.466,15.527,3.135,23.232,0.051
		c6.255-2.504,10.575-7.042,12.92-13.398C93.868,143.326,96.009,143.164,98.149,143.001z M94.522,172.766
		c3.694-0.928,7.408-1.599,10.897-2.882c1.177-0.433,1.783-2.418,2.65-3.693c-1.447-0.48-3.138-1.698-4.299-1.315
		c-5.95,1.966-11.709,2.315-17.66-0.035c-1.068-0.422-2.752,0.713-4.151,1.129c0.762,1.332,1.223,3.397,2.343,3.856
		C87.502,171.139,90.971,171.799,94.522,172.766z"/>
	<path style="fill:#F8D6A7;" d="M81.451,124.336c-8.194-5.63-16.784-5.935-25.74-2.006c-3.196,1.402-6.471,2.626-9.773,3.957
		c-1.416-7.371,6.258-26.853,11.573-29.453c0.528,0.902,1.069,1.823,1.22,2.082c10.348-0.802,20.273-1.571,30.453-2.36
		c-0.305-1.02-0.718-2.403-1.137-3.802c4.822,0,9.602,0,14.673,0c-0.313,1.754-0.541,3.035-0.832,4.665
		c5.115,0,9.999-0.242,14.848,0.068c4.868,0.312,9.7,1.174,14.986,1.852c0.385-0.585,1.027-1.56,1.915-2.911
		c1.056,0.785,2.41,1.279,2.869,2.212c4.041,8.214,8.193,16.412,9.052,25.748c0.032,0.347-0.135,0.712-0.365,1.813
		c-3.128-1.15-6.148-2.139-9.071-3.361c-5.87-2.455-11.831-4.592-18.236-2.69c-3.195,0.949-6.165,2.659-9.236,4.024
		c-2.345-2.488-4.289-5.647-7.113-7.333C94.283,112.509,86.828,115.531,81.451,124.336z M58.966,112.669
		c7.977-3.995,15.948-3.679,24.156,0.209c-1.775-2.603-3.611-4.803-5.881-6.375c-7.61-5.27-15.845-2.582-18.545,5.868
		c-0.035,0.252-0.07,0.504-0.104,0.757C58.716,112.975,58.841,112.822,58.966,112.669z M108.233,113.227
		c7.903-4.71,15.824-4.769,24.032-0.114c-1.546-5.873-4.873-8.821-9.774-9.207C116.876,103.464,110.465,107.379,108.233,113.227z"/>
	<path style="fill:#FBFAFA;" d="M76.145,67.418c21.258,0.986,43.334,2.039,65.414,3.002c2.972,0.13,4.013,1.313,3.556,4.247
		c-0.424,2.722-0.745,5.497-0.716,8.244c0.037,3.46-1.598,4.201-4.717,4.015c-14.665-0.878-29.331-1.918-44.012-2.286
		c-14.296-0.358-28.614-0.091-42.916,0.178c-3.414,0.064-4.839-0.941-4.907-4.294c-0.056-2.758-0.322-5.516-0.6-8.263
		c-0.429-4.239-0.074-4.777,4.337-4.82C59.495,67.362,67.408,67.418,76.145,67.418z"/>
	<path style="fill:#FBFAFA;" d="M109.581,130.517c6.977-6.254,14.7-6.683,23.022-3.071c5.272,2.288,10.51,4.916,16.534,4.156
		c2.811-0.355,5.588-0.985,8.768-1.56c-2.676,5.792-6.593,10.196-11.38,13.867c-7.33,5.62-15.457,9.403-24.855,9.243
		c-8.61-0.146-15.166-3.852-18.366-12.31C105.395,137.402,107.488,133.959,109.581,130.517z"/>
	<path style="fill:#FBFAFA;" d="M86.885,141.002c-5.589,10.597-13.312,14.2-25.221,11.63c-11.572-2.497-20.646-8.782-27.426-18.434
		c-0.574-0.817-1.044-1.714-1.5-2.605c-0.201-0.393-0.248-0.865-0.532-1.926c9.108,4.221,17.199,1.772,25.258-1.996
		c8.405-3.929,16.309-3.133,23.336,3.29C82.829,134.307,84.857,137.655,86.885,141.002z"/>
	<path style="fill:#F90802;" d="M86.885,141.002c-2.028-3.347-4.057-6.694-6.085-10.041c0.218-2.208,0.435-4.416,0.651-6.625
		c5.376-8.805,12.831-11.827,20.085-7.496c2.824,1.686,4.769,4.845,7.113,7.333c0.313,2.112,0.627,4.223,0.936,6.339
		c-2.098,3.447-4.191,6.89-6.284,10.33c-1.718,0.717-3.436,1.437-5.154,2.159c-2.14,0.164-4.281,0.326-6.42,0.487
		C90.115,142.657,88.5,141.83,86.885,141.002z"/>
	<path style="fill:#FBFAFA;" d="M40.507,122.864c-6.916-5.279-8.835-12.829-8.828-21.581c5.782-1.102,11.393-2.172,16.955-3.233
		C45.899,106.399,43.266,114.441,40.507,122.864z"/>
	<path style="fill:#FBFAFA;" d="M150.333,121.289c-2.854-7.807-5.699-15.589-8.654-23.672c5.321,0.816,10.865,1.667,16.351,2.509
		C158.675,106.843,155.41,115.58,150.333,121.289z"/>
	<path style="fill:#FBFAFA;" d="M178.463,44.844c3.749,0.07,6.905,3.31,6.895,7.078c-0.01,3.731-3.248,7.047-6.901,7.067
		c-3.963,0.021-7.152-3.238-7.084-7.238C171.435,48.191,174.938,44.778,178.463,44.844z"/>
	<path style="fill:#FBFAFA;" d="M98.795,41.034c1.412,1.856,2.47,3.322,3.615,4.717c0.552,0.673,1.524,1.096,1.855,1.834
		c0.572,1.28,0.793,2.716,1.161,4.087c-1.308-0.288-2.622-0.548-3.918-0.881c-0.337-0.087-0.617-0.397-0.703-0.456
		c-1.113,1.417-2.183,2.78-3.254,4.144c-0.964-1.209-1.929-2.417-3.135-3.929c-0.603,0.478-1.718,1.362-2.97,2.354
		c-2.396-1.974-2.387-3.716,0.103-5.885c3.918-3.413,3.816-3.53,3.462-7.326c-1.778,1.162-3.187,1.993-4.486,2.969
		c-0.689,0.517-1.07,1.523-1.8,1.891c-1.291,0.65-2.742,0.982-4.126,1.447c0.26-1.4,0.509-2.801,0.786-4.197
		c0.069-0.347,0.226-0.676,0.152-0.462c-1.521-1.162-2.819-2.153-4.118-3.145c1.341-0.981,2.683-1.962,4.283-3.133
		c-0.162-0.244-0.856-0.874-1.004-1.614c-0.194-0.963,0.045-2.013,0.097-3.025c1.09,0.176,2.423,0.019,3.215,0.6
		c1.391,1.021,2.303,2.701,3.703,3.703c0.904,0.647,2.321,0.579,3.509,0.831c-0.339-1.212-0.43-2.587-1.085-3.594
		c-0.73-1.122-2.213-1.759-2.923-2.887c-0.693-1.102-0.825-2.557-1.203-3.858c1.289,0.188,2.583,0.353,3.866,0.58
		c0.352,0.062,0.67,0.312,0.381,0.17c1.243-1.417,2.337-2.665,3.432-3.914c0.918,1.39,1.837,2.779,2.87,4.343
		c-0.282,0.113,0.091,0.039,0.375-0.162c1.436-1.017,2.916-3.286,4.558-0.99c0.494,0.691-0.881,3.323-2.012,4.457
		c-3.476,3.489-3.591,3.374-3.503,7.192c2.009-1.361,3.515-2.297,4.919-3.368c0.686-0.523,1.065-1.518,1.793-1.903
		c1.174-0.62,2.521-0.913,3.796-1.344c-0.106,1.307-0.157,2.621-0.349,3.915c-0.06,0.408-0.497,0.76-0.403,0.626
		c1.529,1.362,2.836,2.526,4.143,3.69c-1.227,0.818-2.454,1.635-4.162,2.774c0.101-0.591-0.041-0.316,0.04-0.15
		c0.747,1.534,3.266,3.018,0.934,4.665c-0.716,0.506-3.111-0.959-4.486-1.891C104.278,42.613,103.463,39.42,98.795,41.034z"/>
	<path style="fill:#412E27;" d="M94.522,172.766c-3.551-0.968-7.019-1.628-10.221-2.94c-1.12-0.459-1.581-2.524-2.343-3.856
		c1.399-0.416,3.082-1.551,4.151-1.129c5.951,2.35,11.71,2.001,17.66,0.035c1.161-0.384,2.852,0.835,4.299,1.315
		c-0.867,1.275-1.473,3.26-2.65,3.693C101.93,171.167,98.216,171.839,94.522,172.766z"/>
	<path style="fill:#412E27;" d="M58.691,112.366c2.704-8.445,10.939-11.133,18.549-5.863c2.27,1.572,4.106,3.772,5.881,6.375
		c-8.208-3.888-16.179-4.204-24.156-0.209C58.873,112.569,58.782,112.468,58.691,112.366z"/>
	<path style="fill:#412E27;" d="M108.233,113.227c2.231-5.849,8.642-9.763,14.257-9.321c4.901,0.386,8.229,3.334,9.774,9.207
		C124.058,108.459,116.136,108.518,108.233,113.227z"/>
	<path style="fill:#412E27;" d="M58.966,112.669c-0.125,0.153-0.25,0.305-0.375,0.458c0.035-0.252,0.07-0.504,0.102-0.759
		C58.782,112.468,58.873,112.569,58.966,112.669z"/>
</g>
</svg>
