<svg width="200" height="200" viewBox="0 0 200 200" xmlns="http://www.w3.org/2000/svg">
  <rect x="0" y="0" width="200" height="200" fill="#FECE44"/>
  <circle cx="100" cy="100" r="50" fill="#FF9E3C"/>
  <path d="M 125 75 A 25 25 0 0 1 75 75 L 100 100 L 125 75" fill="#FFFFFF"/>
  <path d="M 100 100 L 75 125 A 25 25 0 0 1 75 175 L 100 150 L 125 175 A 25 25 0 0 1 175 175 L 150 150 L 175 125 A 25 25 0 0 1 125 125 L 150 100 L 125 75" stroke="#FFFFFF" stroke-width="5"/>
  <circle cx="100" cy="100" r="30" fill="#000000"/>
</svg>